<svg width="56" height="56" viewBox="0 0 56 56" fill="none" xmlns="http://www.w3.org/2000/svg">
<g clip-path="url(#clip0_420_990)">
<path d="M11.6667 16.3333H14C15.2377 16.3333 16.4247 15.8416 17.2998 14.9664C18.175 14.0912 18.6667 12.9043 18.6667 11.6666C18.6667 11.0477 18.9125 10.4543 19.3501 10.0167C19.7877 9.57909 20.3812 9.33325 21 9.33325H35C35.6188 9.33325 36.2123 9.57909 36.6499 10.0167C37.0875 10.4543 37.3333 11.0477 37.3333 11.6666C37.3333 12.9043 37.825 14.0912 38.7002 14.9664C39.5753 15.8416 40.7623 16.3333 42 16.3333H44.3333C45.571 16.3333 46.758 16.8249 47.6332 17.7001C48.5083 18.5753 49 19.7622 49 20.9999V41.9999C49 43.2376 48.5083 44.4246 47.6332 45.2997C46.758 46.1749 45.571 46.6666 44.3333 46.6666H11.6667C10.429 46.6666 9.242 46.1749 8.36683 45.2997C7.49167 44.4246 7 43.2376 7 41.9999V20.9999C7 19.7622 7.49167 18.5753 8.36683 17.7001C9.242 16.8249 10.429 16.3333 11.6667 16.3333" stroke="#2C6FF4" stroke-width="2" stroke-linecap="round" stroke-linejoin="round"/>
<path d="M28 37.3333C31.866 37.3333 35 34.1992 35 30.3333C35 26.4673 31.866 23.3333 28 23.3333C24.134 23.3333 21 26.4673 21 30.3333C21 34.1992 24.134 37.3333 28 37.3333Z" stroke="#2C6FF4" stroke-width="2" stroke-linecap="round" stroke-linejoin="round"/>
</g>
<defs>
<clipPath id="clip0_420_990">
<rect width="56" height="56" fill="white"/>
</clipPath>
</defs>
</svg>
