<svg width="56" height="56" viewBox="0 0 56 56" fill="none" xmlns="http://www.w3.org/2000/svg">
<g clip-path="url(#clip0_420_996)">
<path d="M16.3333 30.3333H13.9999C11.4226 30.3333 9.33325 32.4226 9.33325 34.9999V41.9999C9.33325 44.5772 11.4226 46.6666 13.9999 46.6666H16.3333C18.9106 46.6666 20.9999 44.5772 20.9999 41.9999V34.9999C20.9999 32.4226 18.9106 30.3333 16.3333 30.3333Z" stroke="#2C6FF4" stroke-width="2" stroke-linecap="round" stroke-linejoin="round"/>
<path d="M42 30.3333H39.6667C37.0893 30.3333 35 32.4226 35 34.9999V41.9999C35 44.5772 37.0893 46.6666 39.6667 46.6666H42C44.5773 46.6666 46.6667 44.5772 46.6667 41.9999V34.9999C46.6667 32.4226 44.5773 30.3333 42 30.3333Z" stroke="#2C6FF4" stroke-width="2" stroke-linecap="round" stroke-linejoin="round"/>
<path d="M9.33325 34.9999V27.9999C9.33325 23.0492 11.2999 18.3013 14.8006 14.8006C18.3013 11.2999 23.0492 9.33325 27.9999 9.33325C32.9506 9.33325 37.6986 11.2999 41.1992 14.8006C44.6999 18.3013 46.6666 23.0492 46.6666 27.9999V34.9999" stroke="#2C6FF4" stroke-width="2" stroke-linecap="round" stroke-linejoin="round"/>
</g>
<defs>
<clipPath id="clip0_420_996">
<rect width="56" height="56" fill="white"/>
</clipPath>
</defs>
</svg>
