<svg width="24" height="25" viewBox="0 0 24 25" fill="none" xmlns="http://www.w3.org/2000/svg">
<path d="M3.01514 12.7412L5.00306 12.7503C5.41727 12.7522 5.75152 13.0895 5.74963 13.5037C5.7479 13.8834 5.46432 14.1959 5.09802 14.2439L4.99622 14.2503L3.0083 14.2412C2.59409 14.2393 2.25984 13.902 2.26173 13.4878C2.26346 13.1081 2.54704 12.7956 2.91334 12.7476L3.01514 12.7412Z" fill="black"/>
<path d="M7 9.75C7.41421 9.75 7.75 10.0858 7.75 10.5C7.75 10.8797 7.46785 11.1935 7.10177 11.2432L7 11.25H5C4.58579 11.25 4.25 10.9142 4.25 10.5C4.25 10.1203 4.53215 9.80651 4.89823 9.75685L5 9.75H7Z" fill="black"/>
<path d="M13.1813 16.25C13.5955 16.25 13.9313 16.5858 13.9313 17C13.9313 17.3797 13.6491 17.6935 13.283 17.7432L13.1813 17.75H7C6.58579 17.75 6.25 17.4142 6.25 17C6.25 16.6203 6.53215 16.3065 6.89823 16.2568L7 16.25H13.1813Z" fill="black"/>
<path d="M11.2967 6.76032C11.6713 6.6979 12.0272 6.92463 12.1364 7.27756L12.1598 7.37682L12.7382 10.8471C12.7621 10.9904 12.8718 11.1009 13.0093 11.1296L13.0802 11.1368H16.5379C16.9521 11.1368 17.2879 11.4726 17.2879 11.8868C17.2879 12.2665 17.0057 12.5803 16.6396 12.63L16.5379 12.6368H13.0802C12.2306 12.6368 11.4981 12.0587 11.2912 11.2483L11.2586 11.0937L10.6802 7.62341C10.6121 7.21484 10.8882 6.82842 11.2967 6.76032Z" fill="black"/>
<path d="M13.217 6.75C14.1321 6.75 14.9735 7.23469 15.4348 8.01463L15.5219 8.1745L17.155 11.441L18.2093 12.4948C18.517 12.8026 18.7049 13.2078 18.7429 13.6379L18.75 13.8003V15.9038C18.75 16.8749 18.0003 17.6708 17.0481 17.7444L16.9038 17.75H16.1731C15.7588 17.75 15.4231 17.4142 15.4231 17C15.4231 16.6203 15.7052 16.3065 16.0713 16.2568L16.1731 16.25H16.9038C17.0711 16.25 17.2107 16.1313 17.243 15.9736L17.25 15.9038V13.8003C17.25 13.7314 17.2295 13.6647 17.1918 13.6082L17.1486 13.5555L16.0081 12.415C15.9701 12.377 15.9364 12.3351 15.9074 12.29L15.8676 12.2201L14.1803 8.84533C14.0181 8.52101 13.7054 8.30288 13.3515 8.2584L13.217 8.25H7C6.58579 8.25 6.25 7.91421 6.25 7.5C6.25 7.1203 6.53215 6.80651 6.89823 6.75685L7 6.75H13.217Z" fill="black"/>
<path d="M17 2.75C19.5505 2.75 21.6315 4.76014 21.7451 7.28257L21.75 7.5V17.5C21.75 20.0505 19.7399 22.1315 17.2174 22.2451L17 22.25H7C4.37665 22.25 2.25 20.1234 2.25 17.5C2.25 17.0858 2.58579 16.75 3 16.75C3.41421 16.75 3.75 17.0858 3.75 17.5C3.75 19.233 5.10645 20.6492 6.81558 20.7449L7 20.75H17C18.733 20.75 20.1492 19.3935 20.2449 17.6844L20.25 17.5V7.5C20.25 5.76697 18.8935 4.35075 17.1844 4.25514L17 4.25H7C5.20507 4.25 3.75 5.70507 3.75 7.5C3.75 7.91421 3.41421 8.25 3 8.25C2.58579 8.25 2.25 7.91421 2.25 7.5C2.25 4.94952 4.26014 2.86853 6.78257 2.75489L7 2.75H17Z" fill="black"/>
<path fill-rule="evenodd" clip-rule="evenodd" d="M14.8307 14.764L14.677 14.7588L14.5164 14.7644C13.402 14.8432 12.5122 15.7352 12.4368 16.8504L12.4316 17.0043L12.4368 17.1581C12.5159 18.3265 13.4888 19.2498 14.6772 19.2497C15.9174 19.2497 16.9226 18.2443 16.9226 17.0041C16.9225 15.8157 15.9992 14.8429 14.8307 14.764ZM13.9384 16.903C13.9833 16.5723 14.2451 16.3105 14.5759 16.2656L14.6771 16.2588L14.7782 16.2656C15.1421 16.3149 15.4226 16.6268 15.4226 17.0042C15.4226 17.4159 15.0889 17.7497 14.6772 17.7497C14.2997 17.7497 13.9878 17.4693 13.9385 17.1055L13.9316 17.0042L13.9384 16.903Z" fill="black"/>
</svg>
