<svg width="24" height="25" viewBox="0 0 24 25" fill="none" xmlns="http://www.w3.org/2000/svg">
<path d="M5.30085 14.5L3.80085 16C2.30085 12.7 3.00085 8.79999 5.60085 6.09999C8.90085 2.89999 14.0009 2.59999 17.5009 5.39999" stroke="black" stroke-width="1.5" stroke-linecap="round" stroke-linejoin="round"/>
<path d="M6.5 19.6C10 22.3 15.1 22.1 18.4 18.9C21.1 16.2 21.7 12.3 20.3 9L18.7 10.5" stroke="black" stroke-width="1.5" stroke-linecap="round" stroke-linejoin="round"/>
<path fill-rule="evenodd" clip-rule="evenodd" d="M10.4 12.5L9.2 14.2C9 14.4 9 14.6 9 14.8V16C9 16.3 9.2 16.5 9.5 16.5H14.6C14.9 16.5 15.1 16.3 15.1 16V14.8C15.1 14.6 15 14.4 14.9 14.2L13.5 12.5L14.8 10.8C15 10.6 15 10.4 15 10.2V9C15 8.7 14.8 8.5 14.5 8.5H9.5C9.2 8.5 9 8.7 9 9V10.2C9 10.4 9.1 10.6 9.2 10.8L10.4 12.5Z" stroke="black" stroke-width="1.5" stroke-linecap="round" stroke-linejoin="round"/>
</svg>
