<svg width="24" height="24" viewBox="0 0 24 24" fill="none" xmlns="http://www.w3.org/2000/svg">
<path d="M14.0009 20.0034C13.5286 20.6332 12.7873 21.0038 12.0001 21.0038C11.2129 21.0038 10.4716 20.6332 9.99927 20.0034" stroke="white" stroke-width="1.5" stroke-linecap="round" stroke-linejoin="round"/>
<path d="M5.9976 12.482V8.99884C5.9976 5.68375 8.68501 2.99634 12.0001 2.99634V2.99634C13.5921 2.99634 15.1188 3.62874 16.2445 4.75443C17.3702 5.88012 18.0026 7.40688 18.0026 8.99884V12.482H17.9981L19.3746 13.8596C19.9847 14.4702 20.167 15.3881 19.8365 16.1855C19.5059 16.9828 18.7277 17.5025 17.8645 17.5024H6.13565C5.27252 17.5025 4.49426 16.9828 4.16373 16.1855C3.8332 15.3881 4.01546 14.4702 4.62555 13.8596L6.00213 12.482" stroke="white" stroke-width="1.5" stroke-linecap="round" stroke-linejoin="round"/>
</svg>
