<svg width="24" height="24" viewBox="0 0 24 24" fill="none" xmlns="http://www.w3.org/2000/svg">
<path fill-rule="evenodd" clip-rule="evenodd" d="M17.4964 5.27286V5.27286C18.9541 6.73063 19.7731 8.70778 19.7731 10.7694C19.7731 12.831 18.9541 14.8081 17.4964 16.2659V16.2659L13.2951 20.4671C12.5797 21.1825 11.4199 21.1825 10.7046 20.4671L6.50329 16.2658C5.04553 14.8081 4.22656 12.8309 4.22656 10.7693C4.22656 8.70774 5.04553 6.73059 6.50329 5.27282V5.27282C7.96106 3.81505 9.93823 2.99609 11.9998 2.99609C14.0614 2.99609 16.0386 3.81508 17.4964 5.27286Z" stroke="#fff" stroke-width="1.5" stroke-linecap="round" stroke-linejoin="round"/>
<path fill-rule="evenodd" clip-rule="evenodd" d="M9.06614 12.3806C8.30258 11.617 8.30258 10.3791 9.06614 9.6155L10.6127 8.06892C11.3763 7.30536 12.6143 7.30536 13.3778 8.06892L14.9244 9.6155C15.688 10.3791 15.688 11.617 14.9244 12.3806L13.3778 13.9272C12.6143 14.6907 11.3763 14.6907 10.6127 13.9272L9.06614 12.3806Z" stroke="#fff" stroke-width="1.5" stroke-linecap="round" stroke-linejoin="round"/>
</svg>
