<svg width="24" height="24" viewBox="0 0 24 24" fill="none" xmlns="http://www.w3.org/2000/svg">
<path fill-rule="evenodd" clip-rule="evenodd" d="M7.40902 14.246L5.87402 7H18.5C19.151 7 19.628 7.611 19.47 8.243L18.122 13.635C17.917 14.454 17.221 15.056 16.381 15.14L9.56502 15.822C8.54902 15.923 7.62002 15.244 7.40902 14.246Z" stroke="white" stroke-width="1.5" stroke-linecap="round" stroke-linejoin="round"/>
<path d="M5.874 7L5.224 4H3.5" stroke="white" stroke-width="1.5" stroke-linecap="round" stroke-linejoin="round"/>
<path d="M17.109 19.2671C16.907 19.2671 16.743 19.4311 16.745 19.6331C16.745 19.8351 16.909 19.9991 17.111 19.9991C17.313 19.9991 17.477 19.8351 17.477 19.6331C17.476 19.4311 17.312 19.2671 17.109 19.2671" stroke="white" stroke-width="1.5" stroke-linecap="round" stroke-linejoin="round"/>
<path d="M8.697 19.267C8.495 19.267 8.331 19.431 8.333 19.633C8.331 19.836 8.496 20 8.698 20C8.9 20 9.064 19.836 9.064 19.634C9.064 19.431 8.9 19.267 8.697 19.267" stroke="white" stroke-width="1.5" stroke-linecap="round" stroke-linejoin="round"/>
</svg>
