<svg width="24" height="24" viewBox="0 0 24 24" fill="none" xmlns="http://www.w3.org/2000/svg">
<path fill-rule="evenodd" clip-rule="evenodd" d="M7.73136 20.8328C7.22429 21.0975 6.61084 21.0509 6.14958 20.7126C5.68831 20.3744 5.45945 19.8033 5.55946 19.2401L6.36879 14.6012L2.96137 11.3358C2.54488 10.9386 2.39224 10.3382 2.56847 9.79034C2.7447 9.24246 3.21876 8.84364 3.78872 8.76375L8.51969 8.08747L10.6556 3.8267C10.9088 3.31571 11.4298 2.99243 12.0001 2.99243C12.5704 2.99243 13.0915 3.31571 13.3447 3.8267L15.4806 8.08747L20.2116 8.76375C20.7815 8.84364 21.2556 9.24246 21.4318 9.79034C21.608 10.3382 21.4554 10.9386 21.0389 11.3358L17.6315 14.6012L18.4408 19.2411C18.5408 19.8043 18.312 20.3754 17.8507 20.7136C17.3894 21.0519 16.776 21.0985 16.2689 20.8338L12.0001 18.6279L7.73136 20.8328Z" stroke="#16213E" stroke-width="1.5" stroke-linecap="round" stroke-linejoin="round"/>
</svg>
