<svg width="95" height="70" viewBox="0 0 95 70" fill="none" xmlns="http://www.w3.org/2000/svg">
<path d="M75.6266 10.0015C71.8234 10.0015 68.4547 11.7452 66.1609 14.4327C66.2172 15.0296 66.2516 15.639 66.2516 16.2515C66.2516 19.7327 65.2797 22.9858 63.6172 25.7858C65.0703 31.0796 69.8766 35.0015 75.6266 35.0015C82.5203 35.0015 88.1266 29.3952 88.1266 22.5015C88.1266 15.6077 82.5203 10.0015 75.6266 10.0015Z" fill="#2C6FF4"/>
<path d="M28.75 16.2515C28.75 15.639 28.7844 15.0296 28.8406 14.4327C26.5469 11.7452 23.1781 10.0015 19.375 10.0015C12.4812 10.0015 6.875 15.6077 6.875 22.5015C6.875 29.3952 12.4812 35.0015 19.375 35.0015C25.125 35.0015 29.9281 31.0796 31.3812 25.7858C29.7219 22.9858 28.75 19.7327 28.75 16.2515Z" fill="#2C6FF4"/>
<path d="M47.5 31.8765C38.8844 31.8765 31.875 24.8671 31.875 16.2515C31.875 7.63584 38.8844 0.626465 47.5 0.626465C56.1156 0.626465 63.125 7.63584 63.125 16.2515C63.125 24.8671 56.1156 31.8765 47.5 31.8765Z" fill="#2C6FF4"/>
<path d="M17.9875 41.2515H10C4.83125 41.2515 0.625 45.4577 0.625 50.6265V63.1265C0.625 64.8546 2.025 66.2515 3.75 66.2515H16.25V47.5015C16.25 45.2171 16.9125 43.0983 17.9875 41.2515Z" fill="#2C6FF4"/>
<path d="M84.9984 41.2515H77.0078C78.0859 43.0983 78.7484 45.2171 78.7484 47.5015V66.2515H91.2484C92.9766 66.2515 94.3734 64.8546 94.3734 63.1265V50.6265C94.3734 45.4577 90.1672 41.2515 84.9984 41.2515Z" fill="#2C6FF4"/>
<path d="M72.5 69.3765H22.5C20.775 69.3765 19.375 67.9796 19.375 66.2515V47.5015C19.375 42.3327 23.5812 38.1265 28.75 38.1265H66.25C71.4188 38.1265 75.625 42.3327 75.625 47.5015V66.2515C75.625 67.9796 74.2281 69.3765 72.5 69.3765Z" fill="#2C6FF4"/>
</svg>
