<svg width="100" height="100" viewBox="0 0 100 100" fill="none" xmlns="http://www.w3.org/2000/svg">
<path opacity="0.5" d="M86.1111 47.2241H75V94.4463H86.1111V47.2241Z" fill="white"/>
<path opacity="0.5" d="M9.72309 4.16943L6.94531 16.6694H94.4453L90.2786 4.16943H9.72309Z" fill="#FFD68D"/>
<path d="M10.418 44.4741V87.5019C10.418 92.113 14.1402 95.8352 18.7513 95.8352H81.2513C85.8624 95.8352 89.5846 92.113 89.5846 87.5019V44.4741" stroke="#2C6FF4" stroke-width="3" stroke-miterlimit="10"/>
<path d="M41.6654 83.3608H26.3876C23.332 83.3608 20.832 80.8608 20.832 77.8053V63.9164C20.832 60.8608 23.332 58.3608 26.3876 58.3608H41.6654C44.7209 58.3608 47.2209 60.8608 47.2209 63.9164V77.8053C47.2209 80.8608 44.7209 83.3608 41.6654 83.3608Z" fill="#2C6FF4"/>
<path d="M95.3353 32.0861L91.8908 11.1417C91.2242 7.11388 87.752 4.16943 83.6686 4.16943H16.3353C12.2519 4.16943 8.77972 7.11388 8.11305 11.1417L4.66861 32.0861C3.69639 35.6139 3.64083 39.5028 8.91861 44.6417C11.0297 46.6694 13.7797 47.9472 16.6686 47.9472C21.5297 47.9472 25.6964 45.1139 27.7797 41.0583C29.8353 45.1417 34.0297 47.9472 38.8908 47.9472C43.7519 47.9472 47.9464 45.1417 50.0019 41.0583C52.0575 45.1417 56.2519 47.9472 61.1131 47.9472C65.9742 47.9472 70.1686 45.1417 72.2242 41.0583C74.2797 45.1139 78.4464 47.9472 83.3353 47.9472C86.2519 47.9472 88.9742 46.6694 91.0853 44.6417C96.3353 39.5028 96.3075 35.6139 95.3353 32.0861Z" fill="#2C6FF4"/>
</svg>
