<svg width="101" height="100" viewBox="0 0 101 100" fill="none" xmlns="http://www.w3.org/2000/svg">
<path d="M97.6546 70.319H16.6486C15.1266 70.319 13.8689 69.078 13.8689 67.5393V7.91009C13.8689 6.38804 12.6281 5.13037 11.0892 5.13037H3.34612C1.82407 5.13037 0.566406 6.37115 0.566406 7.91009C0.566406 9.43214 1.80718 10.6898 3.34612 10.6898H8.34276V67.5562C8.34276 72.1392 12.082 75.8784 16.665 75.8784H97.6544C99.1764 75.8784 100.434 74.6377 100.434 73.0987C100.434 71.5767 99.1933 70.319 97.6546 70.319Z" fill="#2C6FF4"/>
<path d="M78.9413 77.5327C72.836 77.5327 67.707 82.5293 67.707 88.767C67.707 94.8724 72.7037 100.001 78.9413 100.001C85.0467 100.001 90.1756 95.0047 90.1756 88.767C90.0267 82.5296 85.0464 77.5327 78.9413 77.5327ZM78.9413 94.3262C75.897 94.3262 73.2498 91.8278 73.2498 88.6347C73.2498 85.5903 75.7483 82.9432 78.9413 82.9432C81.9857 82.9432 84.6328 85.4416 84.6328 88.6347C84.4839 91.828 81.9857 94.3262 78.9413 94.3262Z" fill="#2C6FF4"/>
<path d="M81.7038 0.00146484H29.2715C24.6884 0.00146484 20.9492 3.74069 20.9492 8.32373V56.4542C20.9492 61.0373 24.6884 64.7765 29.2715 64.7765H81.7038C86.2868 64.7765 90.026 61.0373 90.026 56.4542V8.32373C90.026 3.74069 86.2868 0.00146484 81.7038 0.00146484ZM84.4832 56.4542C84.4832 57.9763 83.2425 59.234 81.7035 59.234H29.2715C27.7494 59.234 26.4918 57.9932 26.4918 56.4542V46.3284H32.4482C33.9702 46.3284 35.2279 45.0876 35.2279 43.5487C35.2279 42.0266 33.9871 40.769 32.4482 40.769H26.492V35.2262H38.0076C39.5296 35.2262 40.7873 33.9854 40.7873 32.4464C40.7873 30.9078 39.5465 29.6667 38.0076 29.6667H26.5087V8.32373C26.5087 6.80168 27.7494 5.54401 29.2884 5.54401H42.326V19.9716C42.326 22.0562 44.4106 23.2973 46.3465 22.4701L52.4518 19.4257L57.4485 23.0326C58.2757 23.5952 59.1195 23.5952 59.8143 23.4462L66.7469 21.5103C67.9877 21.229 68.8315 20.1206 68.8315 18.8795V5.56065H81.7368C83.2588 5.56065 84.5165 6.80142 84.5165 8.34036V56.4542H84.4832ZM63.1233 5.54427V16.6462L59.5164 17.7547L54.2385 14.0155C53.4113 13.4529 52.4352 13.3206 51.3265 13.7342L47.8519 15.5375V5.54427H63.1233Z" fill="#2C6FF4"/>
<path d="M32.4644 40.787H32.0508V46.3298H32.4644C33.9864 46.3298 35.2441 45.0891 35.2441 43.5501C35.2441 42.0278 33.9864 40.787 32.4644 40.787ZM38.0072 29.6851H32.0508V35.2279H38.0072C39.5292 35.2279 40.7869 33.9871 40.7869 32.4481C40.7866 30.9425 39.5459 29.6851 38.0072 29.6851Z" fill="#2C6FF4"/>
</svg>
